<?xml version="1.0" encoding="UTF-8"?><svg id="a" xmlns="http://www.w3.org/2000/svg" viewBox="0 0 312.04 67.95"><defs><style>.b{fill:#FFFFFF;}.c{fill:#FFFFFF;}.d{fill:#FFFFFF;}</style></defs><path class="c" d="M89.55,29.19c-2.5-2.02-5.34-3.4-8.47-4.21-4.29-1.12-8.57-1.03-12.78,.28-5.14,1.59-9.3,4.64-12.34,9.08-3.44,5.02-4.86,10.55-3.91,16.62,.16,1.03,.35,2.06,.53,3.13-.3,.04-.46,.08-.62,.08-6.39,0-12.77,0-19.16,.01-.67,0-.84-.24-.85-.88-.06-2.62-.47-5.19-1.79-7.48-1.11-1.93-2.48-3.71-3.78-5.62-.02,.03,.09-.14,.25-.26,3.92-2.86,8.25-4.88,12.95-6.07,1.09-.28,1.25-.58,.81-2.1-1.07,.3-2.15,.58-3.22,.89-4.31,1.24-8.25,3.22-11.81,5.94-.53,.4-.85,.48-1.45,.1-4.03-2.61-8.41-3.46-13.12-2.48-.72,.15-1.44,.31-2.26,.49-.05-2.82,.26-5.45,.97-8.01,.25-.91,.79-1.66,1.8-1.94,3.42-.94,6.79-2.1,10.25-2.79,4.39-.88,8.85-1.4,13.28-2.03,.65-.09,.9-.25,.9-.95-.03-4.53,0-9.05-.02-13.57,0-1.19-.33-2.19-1.56-2.76-.89-.41-1.06-1.27-.79-2.14,.28-.89,1.01-1.22,1.89-1.11,1.32,.17,2.22,1,2.92,2.04,.86,1.28,1.15,2.74,1.15,4.26,0,4.23,0,8.45,0,12.68v1.05c1.56,.16,1.64,.12,1.94-1.25,.32-1.46,.61-2.92,.95-4.37,.91-3.94,1.84-7.87,2.74-11.81,.29-1.28,.82-1.96,1.81-2.09,4.09-.51,8.17-1.11,12.27-1.47,7.2-.63,14.42-.63,21.6,.32,1.18,.16,2.35,.4,3.49,.74,.79,.24,1.09,.98,.99,1.76-.12,.85-.58,1.48-1.56,1.52-.35,.02-.7,0-1.2,0,.18,1.03,.34,1.94,.5,2.85,.71,4.25,1.43,8.51,2.12,12.77,.13,.78,.43,1.1,1.29,1.1,1.54,0,2.91,.55,3.58,2.05,.77,1.71,1.41,3.49,2.14,5.33-.88,.38-1.48,1.08-2.45,.3h0ZM49.01,5.91c-.55,0-.79,.15-.93,.74-.89,3.98-1.62,8-2.79,11.89-1.7,5.62-.84,11.34-1.09,17.01-.02,.51,.16,.72,.68,.72,1.8-.02,3.59,.02,5.38-.03,.27,0,.66-.29,.77-.54,2.22-5.09,5.9-8.8,10.68-11.53,.34-.19,.63-.78,.63-1.19,.04-5.38,.02-10.77,.04-16.15,0-.7-.23-.93-.92-.92-2.06,.03-4.12,.01-6.18,.01s-4.19,.01-6.28,0h0Zm30.8,5.42c-.27-1.57-.57-3.13-.81-4.71-.09-.59-.38-.73-.94-.72-3.76,.02-7.51,.02-11.26,0-.69,0-.91,.22-.91,.92,.03,4.85,.02,9.71,0,14.56,0,.79,.2,.94,1.01,.72,1.17-.32,2.39-.58,3.6-.61,3.29-.08,6.58-.03,9.87-.03,.36,0,.71-.04,1.2-.06-.61-3.49-1.18-6.79-1.75-10.08h-.01ZM17.12,33.07c.34,.04,.93-.15,1.05-.42,.59-1.25,1.12-2.53,1.54-3.84,.1-.3-.23-.87-.53-1.11-.17-.14-.89,.02-.99,.23-.67,1.38-1.24,2.82-1.9,4.35,.3,.31,.53,.74,.81,.77h0Zm5.1-4.78c-.52,1.18-1.02,2.37-1.4,3.6-.1,.32,.18,1.05,.41,1.11,.38,.1,1.11-.07,1.25-.34,.62-1.28,1.15-2.61,1.54-3.96,.1-.33-.45-.84-.81-1.46-.49,.51-.85,.74-.99,1.07h0Z"/><path class="d" d="M95.56,47.78c-.05,11.08-9.32,20.56-21.18,20.16-10.23-.35-19.63-9.09-19.51-20.5,.12-11.1,9.2-20.16,20.31-20.11,11.32-.06,20.42,9.11,20.37,20.45h0Zm-8.83-.29c-.05-6.39-5.36-11.38-11.71-11.34-6.26,.04-11.66,5.53-11.29,12.12,.33,5.77,5.2,10.94,11.58,10.83,6.49-.03,11.47-5.35,11.42-11.62Z"/><path class="d" d="M23.37,64.78h0l-.79,.59-.35,.26c-1.09,.44-2.16,.96-3.27,1.32-4.37,1.42-8.53,.92-12.43-1.54-.36-.22-.75-.39-1.12-.58l-.34-.28c-.59-.59-1.17-1.19-1.76-1.78-.05-.03-.08-.06-.11-.12l-1.19-1.62h0c-.46-1.23-.95-2.45-1.37-3.69-1.01-2.95-.79-5.9,.32-8.73,.6-1.51,1.59-2.87,2.4-4.3,.09-.16,.16-.34,.24-.51l.79-.8c.98-.66,1.92-1.39,2.95-1.96,3-1.64,6.16-2.29,9.58-1.59,1.78,.36,3.43,.95,4.97,1.9,.22,.13,.49,.18,.74,.26l.35,.26c.73,.66,1.45,1.33,2.18,1.99h.01c.58,.95,1.18,1.89,1.74,2.85,1.73,2.97,1.97,6.22,1.46,9.49-.23,1.49-1.06,2.89-1.62,4.33-.12,.3-.22,.6-.33,.91-.03,.05-.07,.09-.12,.12-.98,1.07-1.96,2.14-2.94,3.2h0Zm-15.9-11.3c0,3.8,3.12,6.88,6.94,6.85,3.76-.03,6.83-3.13,6.81-6.87-.02-3.75-3.11-6.8-6.88-6.8-3.74,0-6.87,3.11-6.87,6.82h0Z"/><path class="b" d="M109.9,33.86v14.64h7.11v-11.71h11.71v-5.81l-5.73-.13-5.77-.13-.13-2.84-.13-2.8h13.01v-5.86h-20.08v14.64Z"/><path class="b" d="M208.6,33.86v14.64h7.11v-9.12l4.31-.17c3.05-.08,4.68-.33,5.81-.92,3.56-1.71,5.35-4.77,5.35-9.03s-2.01-7.61-5.77-9.24c-1.55-.67-2.93-.79-9.33-.79h-7.49v14.64Zm14.05-7.4c1.46,1.71,1.38,4.18-.21,5.77-1.13,1.09-1.51,1.21-3.97,1.21h-2.76v-8.45l2.97,.17c2.63,.13,3.1,.29,3.97,1.3Z"/><path class="b" d="M234.12,33.86v14.64h7.11V19.23h-7.11v14.64Z"/><path class="b" d="M139.97,26.34c-2.38,.42-4.02,1.25-5.48,2.8-1.05,1.09-2.01,2.97-2.01,3.93,0,.21,1.42,.38,3.18,.38,2.89,0,3.3-.13,4.18-1.05,1.17-1.3,3.47-1.42,4.48-.29,1.59,1.76,.59,2.47-4.31,3.22-5.65,.84-7.82,2.47-8.24,6.19-.29,2.38,.96,5.23,2.8,6.27,2.84,1.71,7.4,1.3,9.75-.88l1.13-1.09v2.68h6.69v-8.36c0-9.2-.13-9.87-2.47-11.84-2.13-1.76-6.11-2.59-9.7-1.97Zm5.06,14.01c0,2.01-1.63,3.56-3.72,3.56-1.76,0-2.55-.59-2.55-1.88s1.13-2.13,3.35-2.63q2.93-.63,2.93,.96Z"/><path class="b" d="M165.94,26.46c-.79,.29-1.84,1.13-2.38,1.92l-.96,1.42v-3.47h-7.11v22.17h7.11v-5.77c0-8.74,.75-10.33,4.85-10.33h2.26v-2.97c0-3.68-.5-4.1-3.76-2.97Z"/><path class="b" d="M183.72,26.34c-1.8,.38-2.93,1.09-3.93,2.34l-.88,1.13v-3.47h-7.11v22.17h7.03l.17-7.28c.13-6.44,.21-7.36,.92-8.16,1.05-1.17,3.22-1.17,4.27,0,.71,.79,.79,1.71,.92,8.16l.17,7.28h6.61v-6.94c0-8.36,.33-9.37,3.22-9.37,2.38,0,2.63,.88,2.63,9.08v7.24h7.15l-.13-9.16c-.13-8.57-.17-9.24-1-10.37-1.38-1.84-3.3-2.76-5.77-2.76s-4.31,.84-5.81,2.63l-1.09,1.25-.54-1.13c-.96-2.01-4.18-3.26-6.82-2.63Z"/><path class="b" d="M252.06,26.34c-2.38,.42-4.02,1.25-5.48,2.8-1.05,1.09-2.01,2.97-2.01,3.93,0,.21,1.42,.38,3.18,.38,2.89,0,3.3-.13,4.18-1.05,1.17-1.3,3.47-1.42,4.48-.29,1.59,1.76,.59,2.47-4.31,3.22-5.65,.84-7.82,2.47-8.24,6.19-.29,2.38,.96,5.23,2.8,6.27,2.84,1.71,7.4,1.3,9.75-.88l1.13-1.09v2.68h6.69v-8.36c0-9.2-.13-9.87-2.47-11.84-2.13-1.76-6.11-2.59-9.7-1.97Zm5.06,14.01c0,2.01-1.63,3.56-3.72,3.56-1.76,0-2.55-.59-2.55-1.88s1.13-2.13,3.35-2.63q2.93-.63,2.93,.96Z"/><path class="b" d="M275.4,26.38c-3.6,.59-6.69,3.26-7.86,6.86-.79,2.47-.63,7.24,.33,9.45,2.26,5.1,7.9,7.36,13.84,5.6,3.6-1.09,6.36-4.22,6.36-7.32v-1.25h-3.35c-2.55,0-3.35,.13-3.35,.59,0,1.17-1.71,2.76-2.97,2.76-2.68,0-4.14-2.01-4.14-5.65s1.46-5.65,4.14-5.65c1.25,0,2.97,1.59,2.97,2.76,0,.46,.79,.59,3.35,.59h3.35v-1.25c0-4.98-6.11-8.57-12.67-7.49Z"/><path class="b" d="M298.65,26.34c-3.3,.67-5.73,2.51-7.36,5.65-.71,1.34-.88,2.38-.88,5.44,0,4.43,.96,6.94,3.47,9.03,4.56,3.76,13.43,2.97,16.44-1.51,.63-.92,1.17-2.05,1.25-2.51,.13-.75-.13-.84-2.93-.96-2.76-.13-3.18,0-4.31,.96-2.47,2.05-6.19,.96-6.9-2.01l-.25-1.13h14.85l-.21-2.63c-.25-2.89-1.59-6.48-2.97-7.78-2.17-2.01-6.9-3.22-10.21-2.55Zm5.06,5.94c.59,.54,1.09,1.34,1.17,1.8,.13,.75-.13,.84-3.39,.96-1.92,.08-3.68-.04-3.85-.21-.5-.5,.54-2.34,1.71-2.93,1.59-.79,3.18-.67,4.35,.38Z"/></svg>